<svg width="169" height="45" viewBox="0 0 169 45" fill="none" xmlns="http://www.w3.org/2000/svg">
<g clip-path="url(#clip0_6_2)">
<path d="M17.625 19.6875L26.5688 4.2C25.2563 3.91875 23.9062 3.75 22.5 3.75C18 3.75 13.875 5.34375 10.65 7.96875L17.5125 19.875L17.625 19.6875ZM40.3875 16.875C38.6625 11.4 34.4812 7.0125 29.1375 4.9875L22.275 16.875H40.3875ZM40.875 18.75H26.8313L27.375 19.6875L36.3 35.1562C39.375 31.8188 41.25 27.3937 41.25 22.5C41.25 21.2062 41.1187 19.9688 40.875 18.75ZM16.0125 22.5L8.7 9.84375C5.64375 13.1812 3.75 17.6062 3.75 22.5C3.75 23.7938 3.88125 25.0312 4.125 26.25H18.1687L16.0125 22.5ZM4.6125 28.125C6.3375 33.6 10.5188 37.9875 15.8625 40.0125L22.725 28.125H4.6125ZM25.7437 28.125L18.4312 40.8C19.7437 41.0812 21.0938 41.25 22.5 41.25C27 41.25 31.125 39.6562 34.35 37.0312L27.4875 25.125L25.7437 28.125Z" fill="white"/>
</g>
<path d="M52.0625 18.4336V29H49.2402V18.4336H52.0625ZM49.0645 15.6797C49.0645 15.2695 49.2077 14.931 49.4941 14.6641C49.7806 14.3971 50.1647 14.2637 50.6465 14.2637C51.1217 14.2637 51.5026 14.3971 51.7891 14.6641C52.082 14.931 52.2285 15.2695 52.2285 15.6797C52.2285 16.0898 52.082 16.4284 51.7891 16.6953C51.5026 16.9622 51.1217 17.0957 50.6465 17.0957C50.1647 17.0957 49.7806 16.9622 49.4941 16.6953C49.2077 16.4284 49.0645 16.0898 49.0645 15.6797ZM60.0996 23.9316H56.4766V21.6465H60.0996C60.6595 21.6465 61.1152 21.5553 61.4668 21.373C61.8184 21.1842 62.0755 20.9238 62.2383 20.5918C62.401 20.2598 62.4824 19.8854 62.4824 19.4688C62.4824 19.0456 62.401 18.6517 62.2383 18.2871C62.0755 17.9225 61.8184 17.6296 61.4668 17.4082C61.1152 17.1868 60.6595 17.0762 60.0996 17.0762H57.4922V29H54.5625V14.7812H60.0996C61.2129 14.7812 62.1667 14.9831 62.9609 15.3867C63.7617 15.7839 64.3737 16.334 64.7969 17.0371C65.2201 17.7402 65.4316 18.5443 65.4316 19.4492C65.4316 20.3672 65.2201 21.1615 64.7969 21.832C64.3737 22.5026 63.7617 23.0202 62.9609 23.3848C62.1667 23.7493 61.2129 23.9316 60.0996 23.9316ZM70.0215 14V29H67.209V14H70.0215ZM69.6211 23.3457H68.8496C68.8561 22.61 68.9538 21.9329 69.1426 21.3145C69.3314 20.6895 69.6016 20.1491 69.9531 19.6934C70.3047 19.2311 70.7246 18.873 71.2129 18.6191C71.7077 18.3652 72.2546 18.2383 72.8535 18.2383C73.3743 18.2383 73.8464 18.3132 74.2695 18.4629C74.6992 18.6061 75.0671 18.8405 75.373 19.166C75.6855 19.485 75.9264 19.9049 76.0957 20.4258C76.265 20.9466 76.3496 21.5781 76.3496 22.3203V29H73.5176V22.3008C73.5176 21.832 73.4492 21.4642 73.3125 21.1973C73.1823 20.9238 72.9902 20.7318 72.7363 20.6211C72.4889 20.5039 72.1829 20.4453 71.8184 20.4453C71.4147 20.4453 71.0697 20.5202 70.7832 20.6699C70.5033 20.8197 70.2786 21.028 70.1094 21.2949C69.9401 21.5553 69.8164 21.8613 69.7383 22.2129C69.6602 22.5645 69.6211 22.9421 69.6211 23.3457ZM78.0391 23.8242V23.6191C78.0391 22.8444 78.1497 22.1315 78.3711 21.4805C78.5924 20.8229 78.9147 20.2533 79.3379 19.7715C79.7611 19.2897 80.2819 18.9154 80.9004 18.6484C81.5189 18.375 82.2285 18.2383 83.0293 18.2383C83.8301 18.2383 84.543 18.375 85.168 18.6484C85.793 18.9154 86.3171 19.2897 86.7402 19.7715C87.1699 20.2533 87.4954 20.8229 87.7168 21.4805C87.9382 22.1315 88.0488 22.8444 88.0488 23.6191V23.8242C88.0488 24.5924 87.9382 25.3053 87.7168 25.9629C87.4954 26.6139 87.1699 27.1836 86.7402 27.6719C86.3171 28.1536 85.7962 28.528 85.1777 28.7949C84.5592 29.0618 83.8496 29.1953 83.0488 29.1953C82.248 29.1953 81.5352 29.0618 80.9102 28.7949C80.2917 28.528 79.7676 28.1536 79.3379 27.6719C78.9147 27.1836 78.5924 26.6139 78.3711 25.9629C78.1497 25.3053 78.0391 24.5924 78.0391 23.8242ZM80.8516 23.6191V23.8242C80.8516 24.2669 80.8906 24.6803 80.9688 25.0645C81.0469 25.4486 81.1706 25.7871 81.3398 26.0801C81.5156 26.3665 81.7435 26.5911 82.0234 26.7539C82.3034 26.9167 82.6452 26.998 83.0488 26.998C83.4395 26.998 83.7747 26.9167 84.0547 26.7539C84.3346 26.5911 84.5592 26.3665 84.7285 26.0801C84.8978 25.7871 85.0215 25.4486 85.0996 25.0645C85.1842 24.6803 85.2266 24.2669 85.2266 23.8242V23.6191C85.2266 23.1895 85.1842 22.7858 85.0996 22.4082C85.0215 22.0241 84.8945 21.6855 84.7188 21.3926C84.5495 21.0931 84.3249 20.8587 84.0449 20.6895C83.765 20.5202 83.4264 20.4355 83.0293 20.4355C82.6322 20.4355 82.2936 20.5202 82.0137 20.6895C81.7402 20.8587 81.5156 21.0931 81.3398 21.3926C81.1706 21.6855 81.0469 22.0241 80.9688 22.4082C80.8906 22.7858 80.8516 23.1895 80.8516 23.6191ZM94.9531 18.4336V20.4258H88.8008V18.4336H94.9531ZM90.3242 15.8262H93.1367V25.8164C93.1367 26.1224 93.1758 26.3568 93.2539 26.5195C93.3385 26.6823 93.4622 26.7962 93.625 26.8613C93.7878 26.9199 93.9928 26.9492 94.2402 26.9492C94.416 26.9492 94.5723 26.9427 94.709 26.9297C94.8522 26.9102 94.9727 26.8906 95.0703 26.8711L95.0801 28.9414C94.8392 29.0195 94.5788 29.0814 94.2988 29.127C94.0189 29.1725 93.7096 29.1953 93.3711 29.1953C92.7526 29.1953 92.2122 29.0944 91.75 28.8926C91.2943 28.6842 90.9427 28.3522 90.6953 27.8965C90.4479 27.4408 90.3242 26.8418 90.3242 26.0996V15.8262ZM95.8516 23.8242V23.6191C95.8516 22.8444 95.9622 22.1315 96.1836 21.4805C96.4049 20.8229 96.7272 20.2533 97.1504 19.7715C97.5736 19.2897 98.0944 18.9154 98.7129 18.6484C99.3314 18.375 100.041 18.2383 100.842 18.2383C101.643 18.2383 102.355 18.375 102.98 18.6484C103.605 18.9154 104.13 19.2897 104.553 19.7715C104.982 20.2533 105.308 20.8229 105.529 21.4805C105.751 22.1315 105.861 22.8444 105.861 23.6191V23.8242C105.861 24.5924 105.751 25.3053 105.529 25.9629C105.308 26.6139 104.982 27.1836 104.553 27.6719C104.13 28.1536 103.609 28.528 102.99 28.7949C102.372 29.0618 101.662 29.1953 100.861 29.1953C100.061 29.1953 99.3477 29.0618 98.7227 28.7949C98.1042 28.528 97.5801 28.1536 97.1504 27.6719C96.7272 27.1836 96.4049 26.6139 96.1836 25.9629C95.9622 25.3053 95.8516 24.5924 95.8516 23.8242ZM98.6641 23.6191V23.8242C98.6641 24.2669 98.7031 24.6803 98.7812 25.0645C98.8594 25.4486 98.9831 25.7871 99.1523 26.0801C99.3281 26.3665 99.556 26.5911 99.8359 26.7539C100.116 26.9167 100.458 26.998 100.861 26.998C101.252 26.998 101.587 26.9167 101.867 26.7539C102.147 26.5911 102.372 26.3665 102.541 26.0801C102.71 25.7871 102.834 25.4486 102.912 25.0645C102.997 24.6803 103.039 24.2669 103.039 23.8242V23.6191C103.039 23.1895 102.997 22.7858 102.912 22.4082C102.834 22.0241 102.707 21.6855 102.531 21.3926C102.362 21.0931 102.137 20.8587 101.857 20.6895C101.577 20.5202 101.239 20.4355 100.842 20.4355C100.445 20.4355 100.106 20.5202 99.8262 20.6895C99.5527 20.8587 99.3281 21.0931 99.1523 21.3926C98.9831 21.6855 98.8594 22.0241 98.7812 22.4082C98.7031 22.7858 98.6641 23.1895 98.6641 23.6191ZM114.279 18.4336H116.828V28.6484C116.828 29.612 116.613 30.429 116.184 31.0996C115.76 31.7767 115.168 32.2878 114.406 32.6328C113.645 32.9844 112.759 33.1602 111.75 33.1602C111.307 33.1602 110.839 33.1016 110.344 32.9844C109.855 32.8672 109.387 32.6849 108.938 32.4375C108.495 32.1901 108.124 31.8776 107.824 31.5L109.064 29.8398C109.39 30.2174 109.768 30.5104 110.197 30.7188C110.627 30.9336 111.102 31.041 111.623 31.041C112.131 31.041 112.561 30.9466 112.912 30.7578C113.264 30.5755 113.534 30.3053 113.723 29.9473C113.911 29.5957 114.006 29.1693 114.006 28.668V20.875L114.279 18.4336ZM107.17 23.8438V23.6387C107.17 22.8314 107.268 22.099 107.463 21.4414C107.665 20.7773 107.948 20.2077 108.312 19.7324C108.684 19.2572 109.133 18.8893 109.66 18.6289C110.188 18.3685 110.783 18.2383 111.447 18.2383C112.15 18.2383 112.74 18.3685 113.215 18.6289C113.69 18.8893 114.081 19.2604 114.387 19.7422C114.693 20.2174 114.93 20.7806 115.1 21.4316C115.275 22.0762 115.412 22.7826 115.51 23.5508V24C115.412 24.7357 115.266 25.4193 115.07 26.0508C114.875 26.6823 114.618 27.2357 114.299 27.7109C113.98 28.1797 113.583 28.5443 113.107 28.8047C112.639 29.0651 112.079 29.1953 111.428 29.1953C110.777 29.1953 110.188 29.0618 109.66 28.7949C109.139 28.528 108.693 28.1536 108.322 27.6719C107.951 27.1901 107.665 26.6237 107.463 25.9727C107.268 25.3216 107.17 24.612 107.17 23.8438ZM109.982 23.6387V23.8438C109.982 24.2799 110.025 24.6868 110.109 25.0645C110.194 25.4421 110.324 25.7773 110.5 26.0703C110.682 26.3568 110.907 26.5814 111.174 26.7441C111.447 26.9004 111.77 26.9785 112.141 26.9785C112.655 26.9785 113.075 26.8711 113.4 26.6562C113.726 26.4349 113.97 26.1322 114.133 25.748C114.296 25.3639 114.39 24.9212 114.416 24.4199V23.1406C114.403 22.7305 114.348 22.3626 114.25 22.0371C114.152 21.7051 114.016 21.4219 113.84 21.1875C113.664 20.9531 113.436 20.7708 113.156 20.6406C112.876 20.5104 112.544 20.4453 112.16 20.4453C111.789 20.4453 111.467 20.5299 111.193 20.6992C110.926 20.862 110.702 21.0866 110.52 21.373C110.344 21.6595 110.21 21.998 110.119 22.3887C110.028 22.7728 109.982 23.1895 109.982 23.6387ZM121.828 20.7383V29H119.016V18.4336H121.662L121.828 20.7383ZM125.012 18.3652L124.963 20.9727C124.826 20.9531 124.66 20.9368 124.465 20.9238C124.276 20.9043 124.104 20.8945 123.947 20.8945C123.55 20.8945 123.205 20.9466 122.912 21.0508C122.626 21.1484 122.385 21.2949 122.189 21.4902C122.001 21.6855 121.857 21.9232 121.76 22.2031C121.669 22.4831 121.617 22.8021 121.604 23.1602L121.037 22.9844C121.037 22.3008 121.105 21.6725 121.242 21.0996C121.379 20.5202 121.577 20.0156 121.838 19.5859C122.105 19.1562 122.43 18.8242 122.814 18.5898C123.199 18.3555 123.638 18.2383 124.133 18.2383C124.289 18.2383 124.449 18.2513 124.611 18.2773C124.774 18.2969 124.908 18.3262 125.012 18.3652ZM131.711 26.6172V21.9102C131.711 21.5716 131.656 21.2819 131.545 21.041C131.434 20.7936 131.262 20.6016 131.027 20.4648C130.799 20.3281 130.503 20.2598 130.139 20.2598C129.826 20.2598 129.556 20.3151 129.328 20.4258C129.1 20.5299 128.924 20.6829 128.801 20.8848C128.677 21.0801 128.615 21.3112 128.615 21.5781H125.803C125.803 21.1289 125.907 20.7025 126.115 20.2988C126.324 19.8952 126.626 19.5404 127.023 19.2344C127.421 18.9219 127.893 18.6777 128.439 18.502C128.993 18.3262 129.611 18.2383 130.295 18.2383C131.115 18.2383 131.844 18.375 132.482 18.6484C133.12 18.9219 133.622 19.332 133.986 19.8789C134.357 20.4258 134.543 21.1094 134.543 21.9297V26.4512C134.543 27.0306 134.579 27.5059 134.65 27.877C134.722 28.2415 134.826 28.5605 134.963 28.834V29H132.121C131.984 28.7135 131.88 28.3555 131.809 27.9258C131.743 27.4896 131.711 27.0534 131.711 26.6172ZM132.082 22.5645L132.102 24.1562H130.529C130.158 24.1562 129.836 24.1986 129.562 24.2832C129.289 24.3678 129.064 24.4883 128.889 24.6445C128.713 24.7943 128.583 24.9701 128.498 25.1719C128.42 25.3737 128.381 25.5951 128.381 25.8359C128.381 26.0768 128.436 26.2949 128.547 26.4902C128.658 26.679 128.817 26.8288 129.025 26.9395C129.234 27.0436 129.478 27.0957 129.758 27.0957C130.181 27.0957 130.549 27.0111 130.861 26.8418C131.174 26.6725 131.415 26.4642 131.584 26.2168C131.76 25.9694 131.851 25.735 131.857 25.5137L132.6 26.7051C132.495 26.972 132.352 27.2487 132.17 27.5352C131.994 27.8216 131.77 28.0918 131.496 28.3457C131.223 28.5931 130.894 28.7982 130.51 28.9609C130.126 29.1172 129.67 29.1953 129.143 29.1953C128.472 29.1953 127.863 29.0618 127.316 28.7949C126.776 28.5215 126.346 28.1471 126.027 27.6719C125.715 27.1901 125.559 26.6432 125.559 26.0312C125.559 25.4779 125.663 24.9863 125.871 24.5566C126.079 24.127 126.385 23.7656 126.789 23.4727C127.199 23.1732 127.71 22.9486 128.322 22.7988C128.934 22.6426 129.644 22.5645 130.451 22.5645H132.082ZM139.523 20.4648V33.0625H136.711V18.4336H139.318L139.523 20.4648ZM146.213 23.5996V23.8047C146.213 24.5729 146.122 25.2858 145.939 25.9434C145.764 26.6009 145.503 27.1738 145.158 27.6621C144.813 28.1439 144.383 28.5215 143.869 28.7949C143.361 29.0618 142.775 29.1953 142.111 29.1953C141.467 29.1953 140.907 29.0651 140.432 28.8047C139.956 28.5443 139.556 28.1797 139.23 27.7109C138.911 27.2357 138.654 26.6855 138.459 26.0605C138.264 25.4355 138.114 24.765 138.01 24.0488V23.5117C138.114 22.7435 138.264 22.0404 138.459 21.4023C138.654 20.7578 138.911 20.2012 139.23 19.7324C139.556 19.2572 139.953 18.8893 140.422 18.6289C140.897 18.3685 141.454 18.2383 142.092 18.2383C142.762 18.2383 143.352 18.3652 143.859 18.6191C144.374 18.873 144.803 19.2376 145.148 19.7129C145.5 20.1882 145.764 20.7546 145.939 21.4121C146.122 22.0697 146.213 22.7988 146.213 23.5996ZM143.391 23.8047V23.5996C143.391 23.1504 143.352 22.737 143.273 22.3594C143.202 21.9753 143.085 21.64 142.922 21.3535C142.766 21.0671 142.557 20.8457 142.297 20.6895C142.043 20.5267 141.734 20.4453 141.369 20.4453C140.985 20.4453 140.656 20.5072 140.383 20.6309C140.116 20.7546 139.898 20.9336 139.729 21.168C139.559 21.4023 139.432 21.6823 139.348 22.0078C139.263 22.3333 139.211 22.7012 139.191 23.1113V24.4688C139.224 24.9505 139.315 25.3835 139.465 25.7676C139.615 26.1452 139.846 26.4447 140.158 26.666C140.471 26.8874 140.881 26.998 141.389 26.998C141.76 26.998 142.072 26.9167 142.326 26.7539C142.58 26.5846 142.785 26.3535 142.941 26.0605C143.104 25.7676 143.218 25.429 143.283 25.0449C143.355 24.6608 143.391 24.2474 143.391 23.8047ZM150.705 14V29H147.893V14H150.705ZM150.305 23.3457H149.533C149.54 22.61 149.637 21.9329 149.826 21.3145C150.015 20.6895 150.285 20.1491 150.637 19.6934C150.988 19.2311 151.408 18.873 151.896 18.6191C152.391 18.3652 152.938 18.2383 153.537 18.2383C154.058 18.2383 154.53 18.3132 154.953 18.4629C155.383 18.6061 155.751 18.8405 156.057 19.166C156.369 19.485 156.61 19.9049 156.779 20.4258C156.949 20.9466 157.033 21.5781 157.033 22.3203V29H154.201V22.3008C154.201 21.832 154.133 21.4642 153.996 21.1973C153.866 20.9238 153.674 20.7318 153.42 20.6211C153.173 20.5039 152.867 20.4453 152.502 20.4453C152.098 20.4453 151.753 20.5202 151.467 20.6699C151.187 20.8197 150.962 21.028 150.793 21.2949C150.624 21.5553 150.5 21.8613 150.422 22.2129C150.344 22.5645 150.305 22.9421 150.305 23.3457ZM162.307 27.8086L165.109 18.4336H168.127L163.879 30.5918C163.788 30.8587 163.664 31.1452 163.508 31.4512C163.358 31.7572 163.153 32.0469 162.893 32.3203C162.639 32.6003 162.316 32.8281 161.926 33.0039C161.542 33.1797 161.07 33.2676 160.51 33.2676C160.243 33.2676 160.025 33.2513 159.855 33.2188C159.686 33.1862 159.484 33.1406 159.25 33.082V31.0215C159.322 31.0215 159.396 31.0215 159.475 31.0215C159.553 31.028 159.628 31.0312 159.699 31.0312C160.07 31.0312 160.373 30.9889 160.607 30.9043C160.842 30.8197 161.031 30.6895 161.174 30.5137C161.317 30.3444 161.431 30.123 161.516 29.8496L162.307 27.8086ZM161.135 18.4336L163.43 26.0898L163.83 29.0684L161.916 29.2734L158.117 18.4336H161.135Z" fill="white"/>
<defs>
<clipPath id="clip0_6_2">
<rect width="45" height="45" fill="white"/>
</clipPath>
</defs>
</svg>
